<?xml version="1.0" encoding="utf-8"?>
<!-- Generator: Adobe Illustrator 24.3.0, SVG Export Plug-In . SVG Version: 6.00 Build 0)  -->
<svg version="1.1" id="Layer_1" xmlns="http://www.w3.org/2000/svg" xmlns:xlink="http://www.w3.org/1999/xlink" x="0px" y="0px"
	 viewBox="0 0 512 512" style="enable-background:new 0 0 512 512;" xml:space="preserve">
<path d="M480.1,244.8c-2.3,11.6-4.1,23.4-7.1,34.9c-11.9,45.1-35.4,82.6-74.9,108.9c-25.5,17-54.7,24.3-84.5,26.6
	c-40,3.3-80.3,3.2-121.3,4.4c0-28.2,0-54,0-80.9c5.4-0.2,10.5-0.5,15.6-0.7c34.6-1.2,69.4-0.5,103.9-3.8
	c59.4-5.6,77.8-45.7,85.2-82.5c9.8-48.2-11.7-95.4-51.9-117.7c-25.2-13.9-52.6-21.2-81.3-21.3c-77.3-0.3-154.5-0.1-231.7-0.1
	c0-26.8,0-53.8,0-80.6c75,0.1,150-0.4,224.9,0.8c23.6,0.4,47.8,3.2,70.6,9c76.6,19.4,128.3,65.6,146.9,144.5
	c2.3,9.7,3.9,19.5,5.9,29.4C480.1,225.3,480.1,235.1,480.1,244.8z"/>
<path d="M33.2,479.9c0.2-55.6-0.2-111.1,0.8-166.7c0.3-19.2,2.1-39,7.1-57.4c11.2-41,43.6-64.3,86.2-64.5
	c53.8-0.2,107.5-0.1,161.3,0c3.2,0,6.5,0.4,10.4,0.6c0,26.5,0,52.4,0,79.5c-4.6,0-8.5,0-12.6,0c-50.8,0-101.6,0-152.4,0
	c-14.4,0-16.5,1.6-18.5,16.2c-1,7.7-1.7,15.6-1.7,23.3c-0.1,56.3-0.1,112.7-0.1,169C87,479.9,60.1,479.9,33.2,479.9z"/>
</svg>
