<?xml version="1.0" encoding="utf-8"?>
<!-- Generator: Adobe Illustrator 24.3.0, SVG Export Plug-In . SVG Version: 6.00 Build 0)  -->
<svg version="1.1" id="Layer_1" xmlns="http://www.w3.org/2000/svg" xmlns:xlink="http://www.w3.org/1999/xlink" x="0px" y="0px"
	 viewBox="0 0 512 512" style="enable-background:new 0 0 512 512;" xml:space="preserve">
<path d="M459.4,145.6c0.3,4.6,0.3,9.3,0.3,13.9c0,141.4-105.6,304.4-298.6,304.4c-59.5,0-114.7-17.6-161.1-48
	c8.4,1,16.6,1.3,25.3,1.3c49.1,0,94.2-16.9,130.3-45.7c-46.1-1-84.8-31.8-98.1-74.2c6.5,1,13,1.7,19.8,1.7c9.4,0,18.8-1.3,27.6-3.6
	c-48.1-9.9-84.1-53-84.1-105V189c14,7.9,30.2,12.9,47.4,13.6c-28.3-19.2-46.8-52-46.8-89.1c0-19.9,5.2-38.1,14.3-54
	C87.4,124.5,165,166.8,252.1,171.5c-1.6-7.9-2.6-16.2-2.6-24.5c0-59,46.8-107,104.9-107c30.2,0,57.5,12.9,76.7,33.8
	c23.7-4.6,46.5-13.6,66.6-25.8c-7.8,24.8-24.4,45.7-46.1,59c21.1-2.3,41.6-8.3,60.4-16.6C497.7,111.5,479.8,130.4,459.4,145.6
	L459.4,145.6z"/>
</svg>
