<?xml version="1.0" encoding="utf-8"?>
<!-- Generator: Adobe Illustrator 24.3.0, SVG Export Plug-In . SVG Version: 6.00 Build 0)  -->
<svg version="1.1" id="Layer_1" xmlns="http://www.w3.org/2000/svg" xmlns:xlink="http://www.w3.org/1999/xlink" x="0px" y="0px"
	 viewBox="0 0 512 512" style="enable-background:new 0 0 512 512;" xml:space="preserve">
<style type="text/css">
	.st0{fill:#494949;}
</style>
<g>
	<path class="st0" d="M129.4,388.3c-14.1,0-25.8,0.3-37.5-0.1c-21.3-0.7-36.2-17.6-36.4-43.9C55,255.2,55,166,55.5,76.8
		c0.2-28,15.8-44.2,40.9-44.2c66.5-0.2,133-0.1,199.4-0.1c12.3,0,24.7-1.3,36.8,0.6c5.7,0.9,10.7,7.8,16.1,12
		c-5.5,3.9-11.1,11.2-16.6,11.3C260,57,187.8,56.8,115.7,56.8c-40.2,0-40.2,0-40.2,49.6c0,75.9,0,151.8,0,227.7
		c0,25.4,3.7,29.9,24,30.1c10.7,0.1,21.5,0.7,32.2-0.1c12.5-0.9,17.9,5.2,17.4,20.8c-0.6,16.3-0.1,32.7-0.1,50.9
		c16.2-19,31.9-35.6,45.8-54.2c9.2-12.3,18.8-16.6,32.1-16.4c62.4,0.8,124.8,0.4,187.2,0.3c20.3,0,24.4-4.9,24.4-29.6
		c0.1-50.6,0-101.2,0-151.8c0-8.7-1.3-19.5,9.2-19.9c10.8-0.4,9.6,10.4,9.6,19.1c0.1,52.5,0.2,105,0,157.5
		c-0.1,31-13.8,47.3-39.4,47.4c-62.9,0.2-125.8-0.3-188.7,0.6c-7.5,0.1-16.6,5.3-22,11.8c-19.8,23.7-38.2,49.3-57.7,73.5
		c-3.5,4.3-9.4,5.6-14.2,8.3c-2-6-5.5-12-5.7-18.1C129,439.8,129.4,415.2,129.4,388.3z"/>
	<path class="st0" d="M461,83.8c-2.9,4.8-4.8,9.2-7.6,12.6c-36.8,45.7-71.9,93.8-111.4,135.5c-18.5,19.5-45.3,27.6-69,38.6
		c-8.2,3.8-14.1-4.7-10.3-15.8c12-35.7,20.3-73.1,45.5-101.1c32.7-36.2,62.8-76,93.4-115c9.8-12.5,16.9-13.4,26.2,0.1
		c7.9,11.5,17.2,21.6,25.7,32.5C456.2,74.8,458.2,79.1,461,83.8z M287.8,230.8c1.4,1.5,2.9,2.9,4.3,4.4c21-8.2,39.9-19.9,55.2-41
		c17-23.4,35.8-44.9,54.1-66.8c11.6-13.9,23.8-27,35.8-40.6c-9.8-11.1-16.8-19.1-23.3-26.3c-31.9,38.6-64.9,77.1-96.2,117.5
		C305.8,193.3,297.7,213.1,287.8,230.8z"/>
	<path class="st0" d="M199.2,104.2c27.5,0,55.1,0,82.6,0c7.7,0,17.5-0.7,15.9,12.8c-0.5,4.6-10.3,10.7-15.9,10.7
		c-55.6,0.8-111.2,0.8-166.7,0c-5.5-0.1-10.8-7.4-16.2-11.4c5.4-4,10.7-11.3,16.2-11.6C143.1,103.6,171.2,104.2,199.2,104.2z"/>
	<path class="st0" d="M171.5,176.2c17.9,0,35.8-0.9,53.7,0.5c5.7,0.5,15.2,6.3,15.9,11.1c1.7,12.4-7.7,12.1-14.9,12.1
		c-37.3,0.1-74.7,0.5-112-0.5c-5.1-0.1-10.2-6.9-15.2-10.6c5.3-4.2,10.3-11.7,15.8-12.1C133.6,175.2,152.5,176.2,171.5,176.2z"/>
	<path class="st0" d="M171.5,248c18.4,0,36.8-0.8,55.2,0.5c5.2,0.4,10.1,7.1,15.1,10.9c-4.7,4-9.4,11.5-14.2,11.6
		c-38.3,1-76.7,0.9-115,0c-4.6-0.1-9.1-6.9-13.6-10.6c4.8-4.2,9.4-11.5,14.3-11.9C132.6,247.2,152.1,248,171.5,248z"/>
</g>
</svg>
