<?xml version="1.0" encoding="utf-8"?>
<!-- Generator: Adobe Illustrator 24.3.0, SVG Export Plug-In . SVG Version: 6.00 Build 0)  -->
<svg version="1.1" id="Layer_1" xmlns="http://www.w3.org/2000/svg" xmlns:xlink="http://www.w3.org/1999/xlink" x="0px" y="0px"
	 viewBox="0 0 448 512" style="enable-background:new 0 0 448 512;" xml:space="preserve">
<path d="M409.4,99.1c-1.4-1.8-2.2-5.2-1.5-7.4c7.6-26,5.6-51.6-3.5-76.8c-0.7-2-4-4.4-5.9-4.2c-7.6,0.5-15.4,1.1-22.7,3.1
	c-19.7,5.5-37,15.9-54.1,26.9c-2.5,1.6-6.5,2.3-9.3,1.6c-49.1-12.2-98-12.4-147.1,0.2c-2.5,0.6-5.9-0.2-8.2-1.5
	c-14.3-7.5-27.9-16.5-42.7-22.8c-10.5-4.5-22.5-5.6-34-7.6c-1.9-0.3-5.5,2-6.2,3.8c-9,24.5-11.4,49.6-4,75c1.3,4.5,1.1,7.6-2.1,11.3
	c-13.2,15.8-21.8,34-25.4,54.3c-5,28.1-2.7,56,4,83.6c4.5,18.7,12.5,35.9,24.8,50.8c19.6,23.9,45.7,36.8,75.1,43.9
	c11.3,2.7,22.8,4.6,34.8,6.9c-10.6,11.4-16,24.8-18.6,39.6c-0.2,1.4-1.8,3.2-3.2,3.8c-16.5,6.9-33.4,9.8-50.9,4.5
	c-16.8-5.2-28-17-36.7-31.7c-9.3-15.7-21.8-27.8-40.1-32c-5.7-1.3-12-0.7-17.8,0.2c-4.6,0.7-5.6,4.5-2.7,8.3
	c2.1,2.7,4.5,5.4,7.3,7.1C38.1,352,49,370.3,56.9,390.9c4.9,12.8,13.3,23.1,24.5,31c17,12,36.4,15.1,56.6,13.7
	c7.6-0.5,15.1-1.7,23-2.7c0.2,1.6,0.5,3,0.5,4.4c0.2,15.6,0.3,31.1,0.4,46.7c0,4.2-0.4,7.4-1.4,9.9c27.1,10.7,79.9,22.1,157.3-1.3
	c-0.8-2.6-1.2-5.6-1.1-8.9c0.2-28.7,0.5-57.4,0.2-86.2c-0.1-8.6-1.5-17.3-3.2-25.8c-2.4-12-8.3-22.5-17.2-32
	c3.4-0.5,5.8-0.8,8.1-1.3c14.4-3.2,29.1-5.4,43.1-9.9c43.4-13.8,72-42.8,83.1-87.1c4.4-17.7,6.4-36.2,7.4-54.5
	C439.9,154.3,430.4,124.7,409.4,99.1z"/>
</svg>
