<?xml version="1.0" encoding="utf-8"?>
<!-- Generator: Adobe Illustrator 24.3.0, SVG Export Plug-In . SVG Version: 6.00 Build 0)  -->
<svg version="1.1" id="Layer_1" xmlns="http://www.w3.org/2000/svg" xmlns:xlink="http://www.w3.org/1999/xlink" x="0px" y="0px"
	 viewBox="0 0 448 512" style="enable-background:new 0 0 448 512;" xml:space="preserve">
<path d="M442,239.9c-2.2,11-3.9,22.2-6.8,33c-11.5,42.7-34.1,78.2-72.1,103.1c-24.6,16.1-52.7,23-81.4,25.2
	c-38.5,3.1-77.3,3-116.8,4.2c0-26.7,0-51.1,0-76.6c5.2-0.2,10.1-0.5,15-0.7c33.3-1.1,66.8-0.5,100-3.6c57.2-5.3,74.9-43.3,82-78.1
	c9.4-45.6-11.3-90.3-50-111.4c-24.3-13.2-50.6-20.1-78.3-20.2c-74.4-0.3-148.8-0.1-223.1-0.1c0-25.4,0-50.9,0-76.3
	C82.7,38.5,154.9,38,227,39.2c22.7,0.4,46,3,68,8.5c73.8,18.4,123.5,62.1,141.4,136.8c2.2,9.2,3.8,18.5,5.7,27.8
	C442,221.5,442,230.7,442,239.9z"/>
<path d="M14.7,462.5c0.2-52.6-0.2-105.2,0.8-157.8c0.3-18.2,2-36.9,6.8-54.3c10.8-38.8,42-60.9,83-61.1c51.8-0.2,103.5-0.1,155.3,0
	c3.1,0,6.3,0.4,10,0.6c0,25.1,0,49.6,0,75.3c-4.4,0-8.2,0-12.1,0c-48.9,0-97.8,0-146.7,0c-13.9,0-15.9,1.5-17.8,15.3
	c-1,7.3-1.6,14.8-1.6,22.1c-0.1,53.3-0.1,106.7-0.1,160C66.5,462.5,40.6,462.5,14.7,462.5z"/>
</svg>
