<?xml version="1.0" encoding="utf-8"?>
<!-- Generator: Adobe Illustrator 24.3.0, SVG Export Plug-In . SVG Version: 6.00 Build 0)  -->
<svg version="1.1" id="Layer_1" xmlns="http://www.w3.org/2000/svg" xmlns:xlink="http://www.w3.org/1999/xlink" x="0px" y="0px"
	 viewBox="0 0 512 512" style="enable-background:new 0 0 512 512;" xml:space="preserve">
<style type="text/css">
	.st0{fill:#494949;}
</style>
<path class="st0" d="M429.8,114.2c-1.3-1.6-2.1-4.7-1.4-6.7c7.1-23.6,5.3-46.7-3.3-69.6c-0.7-1.8-3.8-4-5.5-3.8
	c-7.1,0.5-14.4,1-21.3,2.8c-18.5,5-34.7,14.4-50.7,24.4c-2.3,1.4-6.1,2.1-8.7,1.4c-46-11.1-91.9-11.2-138,0.2
	c-2.3,0.5-5.5-0.2-7.7-1.4c-13.4-6.8-26.2-14.9-40-20.7c-9.8-4.1-21.1-5.1-31.9-6.9c-1.8-0.3-5.2,1.8-5.8,3.4
	c-8.4,22.2-10.7,44.9-3.8,67.9c1.2,4.1,1,6.9-2,10.2c-12.4,14.3-20.4,30.8-23.8,49.2c-4.7,25.5-2.5,50.7,3.8,75.7
	c4.2,16.9,11.7,32.5,23.3,46c18.4,21.6,42.9,33.3,70.4,39.8c10.6,2.4,21.4,4.2,32.6,6.2c-9.9,10.3-15,22.5-17.4,35.9
	c-0.2,1.3-1.7,2.9-3,3.4c-15.5,6.2-31.3,8.9-47.7,4.1c-15.8-4.7-26.3-15.4-34.4-28.7c-8.7-14.2-20.4-25.2-37.6-29
	c-5.3-1.2-11.3-0.6-16.7,0.2c-4.3,0.6-5.3,4.1-2.5,7.5c2,2.4,4.2,4.9,6.8,6.4c18.2,10.9,28.4,27.4,35.8,46.1
	c4.6,11.6,12.5,20.9,23,28.1c15.9,10.9,34.1,13.7,53.1,12.4c7.1-0.5,14.2-1.5,21.6-2.4c0.2,1.4,0.5,2.7,0.5,4
	c0.2,14.1,0.3,28.2,0.4,42.3c0,3.8-0.4,6.7-1.3,9c25.4,9.7,74.9,20,147.5-1.2c-0.8-2.4-1.1-5.1-1-8.1c0.2-26,0.5-52,0.2-78.1
	c-0.1-7.8-1.4-15.7-3-23.4c-2.3-10.9-7.8-20.4-16.1-29c3.2-0.5,5.4-0.7,7.6-1.2c13.5-2.9,27.3-4.9,40.4-9
	c40.7-12.5,67.5-38.8,77.9-78.9c4.1-16,6-32.8,6.9-49.4C458.4,164.2,449.5,137.3,429.8,114.2z"/>
</svg>
